<mxfile host="app.diagrams.net" modified="2023-05-13T17:03:42.298Z" agent="Mozilla/5.0 (Windows NT 10.0; Win64; x64) AppleWebKit/537.36 (KHTML, like Gecko) Chrome/113.0.0.0 Safari/537.36" etag="FYVF7FLGgSAXydKxT_ZB" version="21.3.0" type="github">
  <diagram name="PÃ¡gina-1" id="gHVpze0aafD3OSejUOUy">
    <mxGraphModel dx="1434" dy="926" grid="1" gridSize="10" guides="1" tooltips="1" connect="1" arrows="1" fold="1" page="1" pageScale="1" pageWidth="827" pageHeight="1169" math="0" shadow="0">
      <root>
        <mxCell id="0" />
        <mxCell id="1" parent="0" />
        <mxCell id="tideYaGtbPOvdbZgcleZ-4" value="" style="group" vertex="1" connectable="0" parent="1">
          <mxGeometry x="90" y="530" width="230" height="160" as="geometry" />
        </mxCell>
        <mxCell id="tideYaGtbPOvdbZgcleZ-5" value="" style="rounded=1;whiteSpace=wrap;html=1;arcSize=9;strokeColor=#cccccc;fillColor=#F2F2F2;" vertex="1" parent="tideYaGtbPOvdbZgcleZ-4">
          <mxGeometry width="230" height="160" as="geometry" />
        </mxCell>
        <mxCell id="tideYaGtbPOvdbZgcleZ-6" value="&lt;font&gt;&lt;span style=&quot;font-size: 18px&quot;&gt;data&lt;/span&gt;&lt;/font&gt;" style="text;html=1;strokeColor=none;fillColor=none;align=center;verticalAlign=middle;whiteSpace=wrap;rounded=0;fontStyle=1;fontSize=14;fontColor=#cccccc;fontFamily=Courier New;" vertex="1" parent="tideYaGtbPOvdbZgcleZ-4">
          <mxGeometry x="153.33006557377053" y="145.88235294117646" width="49.016393442622956" height="9.411764705882353" as="geometry" />
        </mxCell>
        <mxCell id="tideYaGtbPOvdbZgcleZ-1" value="mainscene.js" style="whiteSpace=wrap;html=1;align=center;fillColor=#A0B7F6;strokeColor=#658BF3;" vertex="1" parent="1">
          <mxGeometry x="350" y="450.0000000000002" width="120" height="42" as="geometry" />
        </mxCell>
        <mxCell id="tideYaGtbPOvdbZgcleZ-7" style="edgeStyle=orthogonalEdgeStyle;rounded=1;orthogonalLoop=1;jettySize=auto;html=1;exitX=0.5;exitY=0;exitDx=0;exitDy=0;entryX=0;entryY=0.5;entryDx=0;entryDy=0;" edge="1" parent="1" source="tideYaGtbPOvdbZgcleZ-2" target="tideYaGtbPOvdbZgcleZ-1">
          <mxGeometry relative="1" as="geometry" />
        </mxCell>
        <mxCell id="tideYaGtbPOvdbZgcleZ-2" value="readApiLocalOpenSky.js" style="whiteSpace=wrap;html=1;align=center;fillColor=#A0B7F6;strokeColor=#658BF3;" vertex="1" parent="1">
          <mxGeometry x="120" y="585" width="160" height="42" as="geometry" />
        </mxCell>
      </root>
    </mxGraphModel>
  </diagram>
</mxfile>
